<?xml version="1.0" encoding="UTF-8"?>
<svg version="1.1" xmlns="http://www.w3.org/2000/svg" width="500" height="500">
<path d="M0 0 C0.98226562 0.00273926 1.96453125 0.00547852 2.9765625 0.00830078 C9.82295394 0.10717795 15.88574108 0.84589182 22.3125 3.3125 C23.74529297 3.76302734 23.74529297 3.76302734 25.20703125 4.22265625 C28.47159793 5.36833437 31.42666915 6.78964429 34.5 8.375 C37.44397217 9.88957185 40.17082407 11.26527469 43.3125 12.3125 C43.9725 12.9725 44.6325 13.6325 45.3125 14.3125 C47.62306609 15.87266206 49.96822256 17.37216244 52.31640625 18.875 C54.3125 20.3125 54.3125 20.3125 55.3125 22.3125 C57.32919827 23.44600534 57.32919827 23.44600534 59.3125 24.3125 C59.3125 25.3025 59.3125 26.2925 59.3125 27.3125 C59.869375 27.498125 60.42625 27.68375 61 27.875 C64.34384807 29.95360826 66.36057828 32.92063602 68.3125 36.3125 C68.3125 36.9725 68.3125 37.6325 68.3125 38.3125 C68.9725 38.3125 69.6325 38.3125 70.3125 38.3125 C71.02864583 40.03776042 71.74479167 41.76302083 72.4609375 43.48828125 C73.38056692 45.57783932 73.38056692 45.57783932 75.3125 48.3125 C77.71764539 54.24351297 79.17216013 60.50269862 80.6640625 66.7109375 C81.29865678 69.39997218 81.29865678 69.39997218 82.3125 72.3125 C82.56737006 75.72466943 82.54383317 79.14180383 82.5625 82.5625 C82.5934375 83.95662109 82.5934375 83.95662109 82.625 85.37890625 C82.65805892 91.22207097 81.90377472 95.0898793 79.3125 100.3125 C79.1475 101.50875 78.9825 102.705 78.8125 103.9375 C78.2761389 107.5579374 77.24850995 109.25956124 75.3125 112.3125 C74.81443352 113.70170163 74.33638732 115.09818934 73.875 116.5 C72.58472415 120.15236815 72.58472415 120.15236815 70.1875 121.5625 C69.56875 121.81 68.95 122.0575 68.3125 122.3125 C67.50721111 124.36250871 67.50721111 124.36250871 67.3125 126.3125 C62.13883685 126.61683313 59.62259437 126.07538101 55.3125 123.3125 C53.31366131 122.97227214 51.31359278 122.63920903 49.3125 122.3125 C48.36375 121.796875 47.415 121.28125 46.4375 120.75 C43.17670812 119.25003573 40.99442549 119.18440499 37.453125 119.33984375 C35.0818067 119.30955319 33.05011709 118.87970574 30.75 118.3125 C23.40843443 116.56747593 16.8270196 117.59812048 9.46484375 118.8125 C6.94972534 119.21142832 4.47047876 119.51299614 1.9375 119.75 C-2.01852873 120.36386653 -5.0651115 121.63546829 -8.6875 123.3125 C-11.45236728 124.27419297 -14.22917975 125.17171381 -17.02734375 126.03125 C-17.84332031 126.2890625 -18.65929687 126.546875 -19.5 126.8125 C-20.26957031 127.0496875 -21.03914062 127.286875 -21.83203125 127.53125 C-23.88091554 128.15700493 -23.88091554 128.15700493 -24.6875 130.3125 C-26.34282623 131.33116229 -28.01010138 132.33060813 -29.6875 133.3125 C-30.3475 133.9725 -31.0075 134.6325 -31.6875 135.3125 C-33.0075 135.3125 -34.3275 135.3125 -35.6875 135.3125 C-35.6875 135.9725 -35.6875 136.6325 -35.6875 137.3125 C-36.6775 137.3125 -37.6675 137.3125 -38.6875 137.3125 C-38.6875 137.9725 -38.6875 138.6325 -38.6875 139.3125 C-39.6775 139.3125 -40.6675 139.3125 -41.6875 139.3125 C-42.0278125 140.2096875 -42.0278125 140.2096875 -42.375 141.125 C-44.04649637 143.91082728 -45.8931404 144.68787232 -48.6875 146.3125 C-51.29838784 148.67473185 -53.37405431 150.79009052 -55.1875 153.8125 C-56.96915681 156.78192801 -59.24703436 158.87203436 -61.6875 161.3125 C-62.0175 162.3025 -62.3475 163.2925 -62.6875 164.3125 C-63.66503644 165.33446992 -64.6680881 166.33229625 -65.6875 167.3125 C-68.58262269 170.65483676 -69.83218419 174.08544384 -71.25 178.25 C-73.60465702 185.10858041 -73.60465702 185.10858041 -74.66137695 187.7097168 C-78.03697455 196.2719928 -79.16761055 204.26952403 -79.0625 213.4375 C-79.07990234 214.96697266 -79.07990234 214.96697266 -79.09765625 216.52734375 C-79.07555348 222.26669662 -78.48560639 227.03936772 -76.37939453 232.39501953 C-75.6875 234.3125 -75.6875 234.3125 -75.1875 238.0625 C-74.89675182 241.33898632 -74.89675182 241.33898632 -73.125 243.875 C-71.35997054 246.86787604 -71.44917072 248.89644702 -71.6875 252.3125 C-71.0275 252.3125 -70.3675 252.3125 -69.6875 252.3125 C-69.6875 253.6325 -69.6875 254.9525 -69.6875 256.3125 C-69.0275 256.6425 -68.3675 256.9725 -67.6875 257.3125 C-67.6875 258.3025 -67.6875 259.2925 -67.6875 260.3125 C-67.0275 260.6425 -66.3675 260.9725 -65.6875 261.3125 C-63.36260478 263.98965207 -61.81525871 265.92922388 -60.6875 269.3125 C-60.0275 269.6425 -59.3675 269.9725 -58.6875 270.3125 C-58.6875 270.9725 -58.6875 271.6325 -58.6875 272.3125 C-58.0275 272.3125 -57.3675 272.3125 -56.6875 272.3125 C-52.6875 277.72426471 -52.6875 277.72426471 -52.6875 280.3125 C-51.6975 280.3125 -50.7075 280.3125 -49.6875 280.3125 C-48.02083333 281.97916667 -46.35416667 283.64583333 -44.6875 285.3125 C-42.41060244 286.7941402 -40.09262455 288.03919877 -37.6875 289.3125 C-37.6875 289.9725 -37.6875 290.6325 -37.6875 291.3125 C-36.57375 291.621875 -36.57375 291.621875 -35.4375 291.9375 C-30.48461435 294.41394283 -28.41845351 299.24327902 -26.6875 304.3125 C-25.35897709 308.44568239 -24.42376152 311.96081507 -24.6875 316.3125 C-24.0275 316.3125 -23.3675 316.3125 -22.6875 316.3125 C-22.584375 317.34375 -22.48125 318.375 -22.375 319.4375 C-21.68898772 323.30411469 -20.45674529 325.84772798 -18.6875 329.3125 C-18.33513503 331.30923484 -17.99915441 333.30900739 -17.6875 335.3125 C-16.6975 336.7975 -16.6975 336.7975 -15.6875 338.3125 C-15.29362212 340.63637947 -14.95263915 342.97043749 -14.6875 345.3125 C-12.7075 345.6425 -10.7275 345.9725 -8.6875 346.3125 C-8.914375 345.77625 -9.14125 345.24 -9.375 344.6875 C-9.82395248 341.27546118 -8.2139005 339.365301 -6.6875 336.3125 C-6.30470247 334.28316953 -6.30470247 334.28316953 -6.125 332.1875 C-5.72917564 328.68162708 -5.26421533 327.28043474 -3.6875 324.3125 C-2.93240794 321.66197277 -2.31406912 318.99779625 -1.6875 316.3125 C-1.0275 316.3125 -0.3675 316.3125 0.3125 316.3125 C0.23 315.28125 0.1475 314.25 0.0625 313.1875 C0.35057561 308.72232801 1.59894717 306.78923956 4.3125 303.3125 C4.92738281 303.3846875 5.54226563 303.456875 6.17578125 303.53125 C6.98402344 303.6240625 7.79226563 303.716875 8.625 303.8125 C9.42550781 303.9053125 10.22601563 303.998125 11.05078125 304.09375 C13.43146555 304.36063463 13.43146555 304.36063463 16.3125 304.3125 C20.97916667 304.3125 25.64583333 304.3125 30.3125 304.3125 C32.12619414 304.18235706 33.93867359 304.03475063 35.75 303.875 C36.69746094 303.79378906 37.64492188 303.71257812 38.62109375 303.62890625 C40.94955186 303.35516879 43.0494281 302.89300742 45.3125 302.3125 C46.89275005 302.10057905 48.47648461 301.91326629 50.0625 301.75 C50.86171875 301.66621094 51.6609375 301.58242188 52.484375 301.49609375 C53.08765625 301.43550781 53.6909375 301.37492187 54.3125 301.3125 C54.3125 300.6525 54.3125 299.9925 54.3125 299.3125 C55.529375 299.168125 56.74625 299.02375 58 298.875 C61.13920377 298.48469047 64.2200134 297.98898144 67.3125 297.3125 C67.3125 296.6525 67.3125 295.9925 67.3125 295.3125 C67.89 295.18875 68.4675 295.065 69.0625 294.9375 C72.43244601 294.00140389 75.2906585 292.32408937 78.375 290.6875 C81.3125 289.3125 81.3125 289.3125 84.3125 289.3125 C84.6425 288.3225 84.9725 287.3325 85.3125 286.3125 C86.64583333 285.64583333 87.97916667 284.97916667 89.3125 284.3125 C90.116875 283.508125 90.92125 282.70375 91.75 281.875 C94.16343108 279.46156892 96.29037637 277.86440133 99.3125 276.3125 C99.9725 276.3125 100.6325 276.3125 101.3125 276.3125 C101.3125 276.9725 101.3125 277.6325 101.3125 278.3125 C102.240625 278.60125 103.16875 278.89 104.125 279.1875 C107.3125 280.3125 107.3125 280.3125 110.3125 282.3125 C111.96833225 283.00563908 113.63360979 283.67724424 115.3125 284.3125 C115.3125 284.9725 115.3125 285.6325 115.3125 286.3125 C116.3025 285.9825 117.2925 285.6525 118.3125 285.3125 C120.5 286.25 120.5 286.25 122.3125 287.3125 C122.3125 287.9725 122.3125 288.6325 122.3125 289.3125 C123.385 289.43625 124.4575 289.56 125.5625 289.6875 C128.83471312 290.23286885 130.4882314 290.81210731 133.3125 292.3125 C134.34375 292.580625 135.375 292.84875 136.4375 293.125 C140.64773756 294.24833887 144.34005142 296.25665435 148.17578125 298.2890625 C150.21826511 299.4564935 150.21826511 299.4564935 152.3125 299.3125 C152.3125 299.9725 152.3125 300.6325 152.3125 301.3125 C153.3025 301.3125 154.2925 301.3125 155.3125 301.3125 C155.3125 301.9725 155.3125 302.6325 155.3125 303.3125 C156.3025 302.9825 157.2925 302.6525 158.3125 302.3125 C160.6875 303.5625 160.6875 303.5625 163.3125 305.3125 C164.240625 305.828125 165.16875 306.34375 166.125 306.875 C167.2078125 307.5865625 167.2078125 307.5865625 168.3125 308.3125 C168.3125 308.9725 168.3125 309.6325 168.3125 310.3125 C169.6325 310.6425 170.9525 310.9725 172.3125 311.3125 C172.3125 311.9725 172.3125 312.6325 172.3125 313.3125 C173.6325 313.6425 174.9525 313.9725 176.3125 314.3125 C176.3125 314.9725 176.3125 315.6325 176.3125 316.3125 C176.93125 316.60125 177.55 316.89 178.1875 317.1875 C180.3125 318.3125 180.3125 318.3125 182.3125 320.3125 C182.3125 321.3025 182.3125 322.2925 182.3125 323.3125 C183.3025 323.6425 184.2925 323.9725 185.3125 324.3125 C186.01187532 325.62897119 186.67979133 326.96272151 187.3125 328.3125 C187.9725 328.6425 188.6325 328.9725 189.3125 329.3125 C189.66979936 330.63961192 189.99575425 331.97512906 190.3125 333.3125 C190.76625 334.364375 191.22 335.41625 191.6875 336.5 C195.41076788 345.1501196 196.78973992 352.32690727 196.6875 361.8125 C196.69910156 362.88886719 196.71070313 363.96523438 196.72265625 365.07421875 C196.69839088 371.71484283 195.86057803 377.17845403 193.3125 383.3125 C192.961875 384.22 192.61125 385.1275 192.25 386.0625 C191.940625 386.805 191.63125 387.5475 191.3125 388.3125 C190.9825 389.22 190.6525 390.1275 190.3125 391.0625 C189.3125 393.3125 189.3125 393.3125 187.3125 394.3125 C186.58556096 396.29138961 185.91433749 398.29204558 185.3125 400.3125 C184.6525 400.3125 183.9925 400.3125 183.3125 400.3125 C183.18101562 401.19615234 183.18101562 401.19615234 183.046875 402.09765625 C182.11517808 404.90761452 180.84461708 405.8925626 178.5625 407.75 C176.06277826 409.8256618 173.81720407 411.83030938 171.5625 414.1875 C169.29883362 416.32540714 168.27406087 416.78364984 165.3125 417.3125 C164.9825 417.9725 164.6525 418.6325 164.3125 419.3125 C163.3225 419.3125 162.3325 419.3125 161.3125 419.3125 C160.9825 419.9725 160.6525 420.6325 160.3125 421.3125 C158.67215807 422.04154086 156.99948082 422.69905243 155.3125 423.3125 C154.508125 423.6425 153.70375 423.9725 152.875 424.3125 C136.19180358 430.82301567 117.81642402 429.77890338 100.1875 429 C99.48906982 428.97760254 98.79063965 428.95520508 98.07104492 428.93212891 C93.45702041 428.68519843 90.32871407 427.52367404 86.3125 425.3125 C84.04219874 424.56730158 84.04219874 424.56730158 81.9375 424.125 C80.74125 423.856875 79.545 423.58875 78.3125 423.3125 C78.3125 422.6525 78.3125 421.9925 78.3125 421.3125 C77.4875 421.250625 76.6625 421.18875 75.8125 421.125 C71.18757163 420.05135592 66.71733096 417.71733096 63.3125 414.3125 C63.19890711 411.66702658 63.1483113 409.0487057 63.14453125 406.40234375 C63.14120285 405.60147842 63.13787445 404.8006131 63.13444519 403.97547913 C63.1293691 402.27312801 63.12703707 400.57076688 63.12719727 398.8684082 C63.12502949 396.28514674 63.10693373 393.70232536 63.08789062 391.11914062 C63.08495295 389.46354312 63.08297066 387.80794359 63.08203125 386.15234375 C63.07484573 385.38744125 63.06766022 384.62253876 63.06025696 383.8344574 C63.08385973 378.18095603 63.39481092 372.10186593 66.6875 367.3125 C68.3125 366.3125 68.3125 366.3125 72.3125 366.3125 C73.33446992 367.29003644 74.33229625 368.2930881 75.3125 369.3125 C76.97642045 369.98599161 78.64282028 370.6534159 80.3125 371.3125 C80.6425 371.9725 80.9725 372.6325 81.3125 373.3125 C83.83983235 373.96805119 83.83983235 373.96805119 86.3125 374.3125 C86.3125 374.9725 86.3125 375.6325 86.3125 376.3125 C87.01375 376.250625 87.715 376.18875 88.4375 376.125 C91.3125 376.3125 91.3125 376.3125 94.25 377.8125 C97.61863105 379.46244174 99.6220985 379.47651784 103.3125 379.3125 C104.3025 379.6425 105.2925 379.9725 106.3125 380.3125 C110.33627669 380.42356547 114.35362322 380.21653997 118.375 380.0625 C119.48939453 380.03542969 120.60378906 380.00835937 121.75195312 379.98046875 C122.81478516 379.94050781 123.87761719 379.90054687 124.97265625 379.859375 C125.94855713 379.82682617 126.92445801 379.79427734 127.92993164 379.76074219 C128.7161792 379.61282227 129.50242676 379.46490234 130.3125 379.3125 C130.9725 378.3225 131.6325 377.3325 132.3125 376.3125 C133.3025 376.3125 134.2925 376.3125 135.3125 376.3125 C136.50364233 372.59018022 136.64752383 369.19877639 136.3125 365.3125 C133.55513825 360.20627455 129.95113227 355.19204409 124.3125 353.3125 C124.3125 352.6525 124.3125 351.9925 124.3125 351.3125 C123.136875 351.044375 121.96125 350.77625 120.75 350.5 C116.72818197 349.4980734 113.11153928 347.9787453 109.3125 346.3125 C106.99363114 345.52789111 104.66669115 344.78224097 102.328125 344.05859375 C100.3125 343.3125 100.3125 343.3125 97.3125 341.3125 C93.01291412 339.93338755 88.77805364 338.96599566 84.3125 338.3125 C84.3125 337.6525 84.3125 336.9925 84.3125 336.3125 C83.631875 336.209375 82.95125 336.10625 82.25 336 C78.72394345 335.17475272 75.62737147 333.75898937 72.3125 332.3125 C70.98973944 331.93941369 69.66017923 331.58203585 68.3125 331.3125 C68.3125 330.6525 68.3125 329.9925 68.3125 329.3125 C66.6728125 328.9103125 66.6728125 328.9103125 65 328.5 C61.40891705 327.34354956 60.73397743 326.83925906 58.3125 324.3125 C55.21242799 323.11200593 55.21242799 323.11200593 52.3125 322.3125 C50.00425703 326.27482982 50.00425703 326.27482982 49.34375 330.70703125 C49.29802148 334.51964677 47.73203302 337.3802044 46.1875 340.8125 C45.25561777 343.47502066 45.15256584 345.51365212 45.3125 348.3125 C44.6525 348.3125 43.9925 348.3125 43.3125 348.3125 C43.17972656 349.26511719 43.04695313 350.21773438 42.91015625 351.19921875 C42.73355469 352.45347656 42.55695313 353.70773437 42.375 355 C42.20097656 356.24136719 42.02695312 357.48273438 41.84765625 358.76171875 C40.88303292 365.16202978 40.88303292 365.16202978 40.3125 367.3125 C39.6525 367.6425 38.9925 367.9725 38.3125 368.3125 C37.94011282 370.63991989 37.61413134 372.97485715 37.3125 375.3125 C36.65666793 377.64890176 35.99034992 379.98239091 35.3125 382.3125 C34.94979412 384.30738234 34.60609301 386.3062811 34.3125 388.3125 C33.6525 388.3125 32.9925 388.3125 32.3125 388.3125 C32.26351563 389.10914063 32.21453125 389.90578125 32.1640625 390.7265625 C31.77548097 396.23370075 31.35812068 401.13828297 29.3125 406.3125 C28.8484375 408.045 28.8484375 408.045 28.375 409.8125 C27.33860025 413.22652269 25.99610641 416.17486987 24.3125 419.3125 C23.6525 419.3125 22.9925 419.3125 22.3125 419.3125 C21.9825 419.9725 21.6525 420.6325 21.3125 421.3125 C15.74707321 426.4332664 9.95843249 425.89384795 2.6875 425.84375 C1.46724121 425.8475769 0.24698242 425.85140381 -1.01025391 425.85534668 C-3.58562039 425.85806401 -6.16101456 425.85071555 -8.73632812 425.83398438 C-12.67380422 425.81257447 -16.60945553 425.83379456 -20.546875 425.859375 C-23.05208735 425.85673169 -25.55729857 425.85160667 -28.0625 425.84375 C-29.2376416 425.85184692 -30.4127832 425.85994385 -31.62353516 425.86828613 C-37.91845903 425.79621915 -41.96766651 425.66053898 -46.6875 421.3125 C-50.3139718 416.21583693 -51.18120452 412.48930488 -51.6875 406.3125 C-51.99288553 404.97248934 -52.32696935 403.63873774 -52.6875 402.3125 C-53.04409743 400.97981471 -53.39826763 399.64647757 -53.75 398.3125 C-53.92660156 397.6525 -54.10320312 396.9925 -54.28515625 396.3125 C-54.6875 394.3125 -54.6875 394.3125 -54.6875 390.3125 C-55.3475 390.3125 -56.0075 390.3125 -56.6875 390.3125 C-56.790625 389.1575 -56.89375 388.0025 -57 386.8125 C-57.36936341 383.7665901 -58.01880837 381.20836458 -59.1875 378.375 C-60.93252597 374.09330212 -61.37959987 369.89915018 -61.6875 365.3125 C-62.3475 365.3125 -63.0075 365.3125 -63.6875 365.3125 C-63.9040625 363.45625 -63.9040625 363.45625 -64.125 361.5625 C-64.48100693 358.73916725 -64.89285685 356.04960417 -65.6875 353.3125 C-66.038125 352.075 -66.38875 350.8375 -66.75 349.5625 C-67.059375 348.49 -67.36875 347.4175 -67.6875 346.3125 C-68.0175 346.3125 -68.3475 346.3125 -68.6875 346.3125 C-68.82027344 345.70921875 -68.95304688 345.1059375 -69.08984375 344.484375 C-69.26644531 343.68515625 -69.44304687 342.8859375 -69.625 342.0625 C-69.79902344 341.27359375 -69.97304687 340.4846875 -70.15234375 339.671875 C-70.89354993 336.4040755 -71.71866887 333.2092531 -72.6875 330 C-73.6875 326.3125 -73.6875 326.3125 -74.1875 322.625 C-74.49690365 319.42035685 -74.49690365 319.42035685 -75.75 317.1875 C-76.94159043 314.80431915 -76.83348495 312.94022904 -76.6875 310.3125 C-78.6675 310.6425 -80.6475 310.9725 -82.6875 311.3125 C-82.48125 311.993125 -82.275 312.67375 -82.0625 313.375 C-81.58604886 317.10720063 -82.56665063 319.75215493 -83.6875 323.3125 C-83.6875 324.3025 -83.6875 325.2925 -83.6875 326.3125 C-84.3475 326.6425 -85.0075 326.9725 -85.6875 327.3125 C-86.0800004 329.30537612 -86.0800004 329.30537612 -86.1875 331.625 C-86.41442235 335.05720051 -87.10460653 337.27488258 -88.6875 340.3125 C-88.6565625 341.4571875 -88.6565625 341.4571875 -88.625 342.625 C-88.7100371 346.28159547 -90.25570687 348.97164937 -91.6875 352.3125 C-91.6875 353.116875 -91.6875 353.92125 -91.6875 354.75 C-91.6875 357.84816055 -92.74448863 360.15217614 -93.89453125 362.9921875 C-95.09953286 366.51815279 -95.60862649 370.12000996 -96.16015625 373.796875 C-96.68145893 376.28368185 -97.54684688 378.06326032 -98.6875 380.3125 C-98.94318149 382.32599176 -99.19668305 384.34016085 -99.40234375 386.359375 C-99.7670851 388.85760342 -100.74230138 390.98101006 -101.6875 393.3125 C-101.85548262 396.02136941 -101.85548262 396.02136941 -101.6875 398.3125 C-102.3475 398.3125 -103.0075 398.3125 -103.6875 398.3125 C-103.3575 399.3025 -103.0275 400.2925 -102.6875 401.3125 C-104.226177 408.57505546 -106.69322847 418.42226289 -112.936203 422.93965149 C-116.03909781 424.48794108 -117.94821805 424.6764229 -121.39575195 424.65307617 C-122.51653641 424.65284958 -123.63732086 424.65262299 -124.79206848 424.65238953 C-125.9911937 424.63690567 -127.19031891 424.62142181 -128.42578125 424.60546875 C-129.66168503 424.60122391 -130.89758881 424.59697906 -132.17094421 424.59260559 C-135.44426082 424.57867779 -138.71712908 424.55175977 -141.99029541 424.51849365 C-145.33528515 424.48771247 -148.68029447 424.47433918 -152.02539062 424.45898438 C-158.57960181 424.42592643 -165.13351425 424.37573464 -171.6875 424.3125 C-171.6875 423.6525 -171.6875 422.9925 -171.6875 422.3125 C-172.6775 421.9825 -173.6675 421.6525 -174.6875 421.3125 C-180.41093976 416.65321738 -181.90061737 408.26329657 -182.6875 401.3125 C-183.33699225 398.97432791 -184.00494011 396.64123375 -184.6875 394.3125 C-185.2236835 391.98903818 -185.72916423 389.66099636 -186.22265625 387.328125 C-186.69691748 385.12599758 -186.69691748 385.12599758 -187.6875 382.3125 C-187.81125 381.44625 -187.935 380.58 -188.0625 379.6875 C-188.72268157 376.12251951 -189.80607435 372.90702578 -190.99609375 369.4921875 C-191.8488223 366.80392461 -192.22456148 364.09013112 -192.6875 361.3125 C-193.3475 360.3225 -194.0075 359.3325 -194.6875 358.3125 C-194.94609978 356.30835171 -195.20118883 354.3033006 -195.40625 352.29296875 C-195.76411215 349.7730228 -196.72406804 347.66086541 -197.6875 345.3125 C-197.8525 344.11625 -198.0175 342.92 -198.1875 341.6875 C-198.46014043 338.19119923 -198.46014043 338.19119923 -200.6875 335.3125 C-200.99609375 333.3671875 -200.99609375 333.3671875 -201.125 331.1875 C-201.50274706 326.96360111 -202.56028825 323.36119485 -203.99609375 319.38671875 C-204.87817726 316.74046823 -205.22978911 314.05876535 -205.6875 311.3125 C-206.3475 310.3225 -207.0075 309.3325 -207.6875 308.3125 C-208.32883999 305.23406804 -208.6875 302.45835085 -208.6875 299.3125 C-209.038125 298.466875 -209.38875 297.62125 -209.75 296.75 C-210.059375 295.945625 -210.36875 295.14125 -210.6875 294.3125 C-210.3575 293.6525 -210.0275 292.9925 -209.6875 292.3125 C-210.3475 292.3125 -211.0075 292.3125 -211.6875 292.3125 C-211.3575 290.3325 -211.0275 288.3525 -210.6875 286.3125 C-211.3475 286.3125 -212.0075 286.3125 -212.6875 286.3125 C-212.831875 285.549375 -212.97625 284.78625 -213.125 284 C-213.6507594 281.23077092 -213.6507594 281.23077092 -214.6875 278.3125 C-214.831875 277.714375 -214.97625 277.11625 -215.125 276.5 C-215.68030916 274.19394961 -215.68030916 274.19394961 -216.6875 271.5625 C-217.63775703 268.47416464 -218.00437646 265.58890652 -218.33984375 262.38671875 C-218.8240997 259.49750629 -219.90038447 256.95877312 -220.99609375 254.25390625 C-222.03215735 251.34473332 -222.2917354 248.36554121 -222.6875 245.3125 C-223.2134375 243.7965625 -223.2134375 243.7965625 -223.75 242.25 C-224.751685 239.111387 -224.84335675 236.58549168 -224.6875 233.3125 C-225.3475 233.3125 -226.0075 233.3125 -226.6875 233.3125 C-227.16461427 231.16548579 -227.6414921 229.01842297 -228.1171875 226.87109375 C-228.47207934 225.27894199 -228.83076918 223.68762594 -229.1953125 222.09765625 C-230.53911242 216.1998677 -231.64081289 210.26970853 -232.6875 204.3125 C-233.3475 204.3125 -234.0075 204.3125 -234.6875 204.3125 C-234.72488281 203.755625 -234.76226562 203.19875 -234.80078125 202.625 C-235.2099696 197.87520577 -236.06636452 193.93931712 -237.86328125 189.5390625 C-240.37874862 182.7437241 -241.67579702 175.458048 -243.2265625 168.390625 C-244.51111961 162.59923195 -246.05761885 156.99754623 -248.00390625 151.390625 C-249.30836423 147.42507275 -250.09718773 143.44468591 -250.6875 139.3125 C-250.8525 138.4875 -251.0175 137.6625 -251.1875 136.8125 C-250.52123434 133.48117168 -248.92336073 131.73490542 -246.33984375 129.60009766 C-240.83615564 126.9282962 -234.37067461 127.55447027 -228.37060547 127.69506836 C-225.92971733 127.75017571 -223.49222941 127.7565946 -221.05078125 127.75585938 C-219.49736628 127.77059635 -217.94397439 127.78807762 -216.390625 127.80859375 C-215.66248596 127.81193222 -214.93434692 127.81527069 -214.18414307 127.81871033 C-209.11576792 127.96180756 -209.11576792 127.96180756 -206.89355469 129.78149414 C-206.49555664 130.28672607 -206.09755859 130.79195801 -205.6875 131.3125 C-204.6975 131.6425 -203.7075 131.9725 -202.6875 132.3125 C-201.125 134.625 -201.125 134.625 -199.6875 137.3125 C-199.1615625 138.240625 -199.1615625 138.240625 -198.625 139.1875 C-196.35139601 144.34100238 -195.29593881 149.90338473 -194.15234375 155.39453125 C-193.74681382 157.38050095 -193.74681382 157.38050095 -192.6875 159.3125 C-192.64727609 161.6454866 -192.64429753 163.97956666 -192.6875 166.3125 C-192.0275 166.6425 -191.3675 166.9725 -190.6875 167.3125 C-190.16015625 169.28125 -190.16015625 169.28125 -189.75 171.8125 C-188.84485705 176.83785363 -187.42456933 181.51818864 -185.6875 186.3125 C-185.3575 186.3125 -185.0275 186.3125 -184.6875 186.3125 C-184.56632812 186.92996094 -184.44515625 187.54742187 -184.3203125 188.18359375 C-183.45304692 192.56662058 -182.56943353 196.94538253 -181.625 201.3125 C-181.46902344 202.034375 -181.31304687 202.75625 -181.15234375 203.5 C-180.73438521 205.394559 -180.73438521 205.394559 -179.6875 207.3125 C-179.56375 208.158125 -179.44 209.00375 -179.3125 209.875 C-178.65892728 213.46964996 -177.61297068 216.72490855 -176.40625 220.1640625 C-175.72425841 222.20262432 -175.19923932 224.22567323 -174.6875 226.3125 C-174.37683594 227.52679688 -174.06617188 228.74109375 -173.74609375 229.9921875 C-173.01204794 232.92429648 -172.34363738 235.86223042 -171.72265625 238.8203125 C-171.56216797 239.57957031 -171.40167969 240.33882812 -171.23632812 241.12109375 C-170.9107014 242.67207086 -170.59043101 244.22418171 -170.27539062 245.77734375 C-169.29330222 250.37085684 -167.93724428 254.14422379 -165.6875 258.3125 C-165.32307767 259.97264616 -164.98777117 261.63956064 -164.6875 263.3125 C-164.36136719 264.06789063 -164.03523438 264.82328125 -163.69921875 265.6015625 C-162.60789565 268.52580278 -162.28700172 271.01939282 -162.0625 274.125 C-161.95035156 275.58873047 -161.95035156 275.58873047 -161.8359375 277.08203125 C-161.78695312 277.81808594 -161.73796875 278.55414063 -161.6875 279.3125 C-161.0275 279.3125 -160.3675 279.3125 -159.6875 279.3125 C-159.543125 280.488125 -159.39875 281.66375 -159.25 282.875 C-159.1571875 283.59945313 -159.064375 284.32390625 -158.96875 285.0703125 C-158.71064664 287.12796983 -158.47901089 289.18890198 -158.25 291.25 C-158.064375 292.260625 -157.87875 293.27125 -157.6875 294.3125 C-157.0275 294.6425 -156.3675 294.9725 -155.6875 295.3125 C-155.34208149 297.64407492 -155.00955743 299.97758361 -154.6875 302.3125 C-153.6975 303.7975 -153.6975 303.7975 -152.6875 305.3125 C-152.60844936 307.64449388 -152.59951231 309.98082622 -152.6875 312.3125 C-152.0275 312.6425 -151.3675 312.9725 -150.6875 313.3125 C-150.125 315.02734375 -150.125 315.02734375 -149.6875 317.25 C-149.52378906 318.06082031 -149.36007813 318.87164062 -149.19140625 319.70703125 C-148.94197266 320.99673828 -148.94197266 320.99673828 -148.6875 322.3125 C-148.42259766 323.58673828 -148.42259766 323.58673828 -148.15234375 324.88671875 C-147.38116578 328.61693518 -146.69178376 332.27578204 -146.25 336.0625 C-145.63813875 339.59769833 -144.43500036 342.19739066 -142.6875 345.3125 C-142.0275 345.3125 -141.3675 345.3125 -140.6875 345.3125 C-139.16021128 340.01789911 -137.75352019 334.78005551 -136.6875 329.375 C-136.5225 328.54097656 -136.3575 327.70695312 -136.1875 326.84765625 C-135.84867873 325.12972652 -135.51417488 323.41094065 -135.18359375 321.69140625 C-134.6875 319.3125 -134.6875 319.3125 -133.75 316.1875 C-131.99942951 310.21727078 -131.08173374 304.02285695 -130.1875 297.875 C-129.6875 295.3125 -129.6875 295.3125 -128.625 293.25 C-127.51414069 291.33340457 -127.51414069 291.33340457 -127.75 289.0625 C-127.68752907 286.31377929 -127.20244926 284.82390932 -126.1875 282.3125 C-124.8958252 279.10434028 -124.59609799 276.7857764 -124.6875 273.3125 C-123.8715668 270.4567338 -123.01961612 267.90292865 -121.5625 265.3125 C-120.49547701 263.25623072 -120.49547701 263.25623072 -120.75 260.5625 C-120.69200528 257.54677477 -120.35242379 256.14055834 -119.25 253.4375 C-117.58790637 249.35639686 -117.11846891 245.69401727 -116.6875 241.3125 C-116.25 238.375 -116.25 238.375 -115.6875 236.3125 C-115.0275 235.9825 -114.3675 235.6525 -113.6875 235.3125 C-113.42508828 233.31161062 -113.16886481 231.30924345 -112.97265625 229.30078125 C-112.64268581 227.00002846 -111.72012243 225.37774486 -110.6875 223.3125 C-110.7184375 221.95125 -110.7184375 221.95125 -110.75 220.5625 C-110.67970531 216.90717632 -109.706331 214.52065556 -108.34375 211.18359375 C-107.54959808 209.24978874 -107.54959808 209.24978874 -107.6875 206.8125 C-107.6875 204.21659375 -107.21385205 202.87504213 -106.25 200.5 C-105.1056016 197.67360209 -104.46035275 195.22371249 -104.1875 192.1875 C-103.67641703 188.22660696 -102.48258402 185.82462091 -100.6875 182.3125 C-100.6875 181.52875 -100.6875 180.745 -100.6875 179.9375 C-100.6875 177.22852204 -100.200375 175.84622743 -99.1875 173.375 C-98.10855552 170.70261437 -97.6875 169.25783691 -97.6875 166.3125 C-97.6875 162.81180612 -96.72003772 160.52276652 -95.41015625 157.32421875 C-94.52999308 155.09144516 -94.52999308 155.09144516 -94.1875 151.6875 C-93.64467494 148.02343084 -92.38971288 145.57507468 -90.6875 142.3125 C-90.5225 141.466875 -90.3575 140.62125 -90.1875 139.75 C-89.35490143 135.69108195 -87.47999598 133.09915808 -84.56640625 130.20703125 C-81.01268823 127.86842441 -78.00230169 127.64939056 -73.875 127.5625 C-72.83569336 127.51802734 -72.83569336 127.51802734 -71.77539062 127.47265625 C-70.08003787 127.40250372 -68.38376688 127.35517338 -66.6875 127.3125 C-67.0175 125.6625 -67.3475 124.0125 -67.6875 122.3125 C-68.6775 121.9825 -69.6675 121.6525 -70.6875 121.3125 C-70.81125 120.343125 -70.935 119.37375 -71.0625 118.375 C-71.26875 117.364375 -71.475 116.35375 -71.6875 115.3125 C-72.3475 114.9825 -73.0075 114.6525 -73.6875 114.3125 C-74.41830266 112.33503397 -75.08171747 110.33177511 -75.6875 108.3125 C-76.25768302 106.60195094 -76.8294886 104.89193594 -77.40625 103.18359375 C-82.90730774 86.04779888 -81.35621563 69.76199855 -74.6875 53.3125 C-74.378125 52.343125 -74.06875 51.37375 -73.75 50.375 C-72.09846604 45.61469622 -70.34028517 41.79924948 -66.6875 38.3125 C-66.3575 37.3225 -66.0275 36.3325 -65.6875 35.3125 C-65.0275 35.3125 -64.3675 35.3125 -63.6875 35.3125 C-63.501875 34.384375 -63.501875 34.384375 -63.3125 33.4375 C-61.53247105 27.38540157 -53.13557836 21.76057836 -48.6875 17.3125 C-47.6975 17.3125 -46.7075 17.3125 -45.6875 17.3125 C-45.6875 16.6525 -45.6875 15.9925 -45.6875 15.3125 C-44.6975 14.9825 -43.7075 14.6525 -42.6875 14.3125 C-42.3575 13.6525 -42.0275 12.9925 -41.6875 12.3125 C-40.6975 12.3125 -39.7075 12.3125 -38.6875 12.3125 C-38.3575 11.6525 -38.0275 10.9925 -37.6875 10.3125 C-34.6875 8.3125 -34.6875 8.3125 -31.3125 7.375 C-27.74501383 6.4995698 -27.74501383 6.4995698 -25.125 4.75 C-22.26839673 3.06533653 -19.95426649 2.77918093 -16.6875 2.3125 C-15.85476562 1.97992187 -15.02203125 1.64734375 -14.1640625 1.3046875 C-9.40798879 -0.05266387 -4.92247215 -0.02740243 0 0 Z M17.3125 39.3125 C16.3225 39.9725 15.3325 40.6325 14.3125 41.3125 C13.83242549 44.06745038 13.83242549 44.06745038 13.9375 47.1875 C13.92976563 48.23679687 13.92203125 49.28609375 13.9140625 50.3671875 C14.35354183 53.61588762 15.07412236 54.96493321 17.3125 57.3125 C20.50689122 58.90969561 23.84499363 58.821618 27.3125 58.3125 C30.05776713 56.21742772 31.39130004 54.19429993 33.3125 51.3125 C33.33999478 49.24339407 33.33999478 49.24339407 32.9375 47.125 C32.73125 45.866875 32.525 44.60875 32.3125 43.3125 C31.6525 43.3125 30.9925 43.3125 30.3125 43.3125 C29.9825 41.9925 29.6525 40.6725 29.3125 39.3125 C24.52325496 37.62217822 21.84911911 36.79215605 17.3125 39.3125 Z M-7.75 62 C-8.389375 62.763125 -9.02875 63.52625 -9.6875 64.3125 C-10.71875 64.9725 -11.75 65.6325 -12.8125 66.3125 C-15.57984393 68.23760882 -16.5794668 69.21000703 -17.6875 72.3125 C-18.3475 72.3125 -19.0075 72.3125 -19.6875 72.3125 C-21.35416667 73.64583333 -21.35416667 73.64583333 -22.6875 75.3125 C-22.6875 75.9725 -22.6875 76.6325 -22.6875 77.3125 C-23.3475 77.3125 -24.0075 77.3125 -24.6875 77.3125 C-26.06757251 78.5973951 -27.39170353 79.94265802 -28.6875 81.3125 C-31.02083333 83.64583333 -33.35416667 85.97916667 -35.6875 88.3125 C-36.22111593 90.2128111 -36.22111593 90.2128111 -36.4375 92.3125 C-36.53546875 93.01375 -36.6334375 93.715 -36.734375 94.4375 C-36.89675848 96.56271736 -36.89675848 96.56271736 -34.6875 98.3125 C-30.64643414 98.8153972 -30.64643414 98.8153972 -27.125 97.125 C-26.650625 96.526875 -26.17625 95.92875 -25.6875 95.3125 C-23.33312982 92.89776135 -21.10177315 90.61480743 -18.375 88.625 C-17.818125 88.191875 -17.26125 87.75875 -16.6875 87.3125 C-16.6875 86.6525 -16.6875 85.9925 -16.6875 85.3125 C-15.3675 84.9825 -14.0475 84.6525 -12.6875 84.3125 C-12.64625 83.69375 -12.605 83.075 -12.5625 82.4375 C-12.27375 81.73625 -11.985 81.035 -11.6875 80.3125 C-8.625 79.0625 -8.625 79.0625 -5.6875 78.3125 C-5.6875 77.6525 -5.6875 76.9925 -5.6875 76.3125 C-2.8125 76.5625 -2.8125 76.5625 0.3125 77.3125 C1.3125 79 1.3125 79 2.3125 81.3125 C5.05062827 84.5056525 7.27665509 86.96721836 11.3125 88.3125 C13.973027 90.76837108 16.21226205 93.17154039 18.3125 96.125 C20.12126487 98.53903863 20.12126487 98.53903863 22.875 98.8125 C25.29775027 98.45186356 25.29775027 98.45186356 27.125 97.25 C29.01530462 94.16581877 28.73912339 91.84737953 28.3125 88.3125 C26.51337267 85.38058879 25.03611464 83.72031031 22.0390625 82.03125 C18.71687425 79.93703391 16.10060413 77.35482532 13.375 74.5625 C12.84430908 74.02971436 12.31361816 73.49692871 11.7668457 72.94799805 C8.98388658 70.12822389 6.41850666 67.26905865 4 64.125 C1.4894131 61.054689 1.4894131 61.054689 -2.3125 60.125 C-5.69493982 59.98039127 -5.69493982 59.98039127 -7.75 62 Z M-103.6875 191.3125 C-102.6875 193.3125 -102.6875 193.3125 -102.6875 193.3125 Z " fill="#AC95FA" transform="translate(261.6875,29.6875)"/>
<path d="M0 0 C1.22396484 -0.00580078 1.22396484 -0.00580078 2.47265625 -0.01171875 C8.62824356 -0.00183819 14.53786603 0.49673754 20.5 2.125 C21.36496094 2.32738281 22.22992188 2.52976563 23.12109375 2.73828125 C28.51301513 4.0769136 32.35166292 5.24429757 36.5 9.125 C37.16 9.125 37.82 9.125 38.5 9.125 C38.5 9.785 38.5 10.445 38.5 11.125 C39.16 11.125 39.82 11.125 40.5 11.125 C40.5 11.785 40.5 12.445 40.5 13.125 C41.139375 13.24875 41.77875 13.3725 42.4375 13.5 C43.118125 13.70625 43.79875 13.9125 44.5 14.125 C44.995 15.115 44.995 15.115 45.5 16.125 C46.49 16.785 47.48 17.445 48.5 18.125 C50.1875 19.625 50.1875 19.625 51.5 21.125 C51.5 21.785 51.5 22.445 51.5 23.125 C52.16 23.125 52.82 23.125 53.5 23.125 C54.28185341 24.57745495 55.04971828 26.03743917 55.8125 27.5 C56.45638672 28.71816406 56.45638672 28.71816406 57.11328125 29.9609375 C60.83908764 38.46207321 61.97935364 46.05401325 61.875 55.3125 C61.88660156 56.35341797 61.89820313 57.39433594 61.91015625 58.46679688 C61.88713727 64.50927869 61.32971925 68.7768998 58.5 74.125 C57.99146484 75.24261719 57.99146484 75.24261719 57.47265625 76.3828125 C54.67910861 82.11378148 51.26927979 86.83264819 46.5 91.125 C45.84 91.125 45.18 91.125 44.5 91.125 C44.5 91.785 44.5 92.445 44.5 93.125 C43.1875 94.75 43.1875 94.75 41.5 96.125 C40.51 96.125 39.52 96.125 38.5 96.125 C38.17 96.785 37.84 97.445 37.5 98.125 C35.94140625 99.1953125 35.94140625 99.1953125 34.0625 100.25 C33.44503906 100.60320312 32.82757813 100.95640625 32.19140625 101.3203125 C30.5 102.125 30.5 102.125 28.5 102.125 C28.17 102.785 27.84 103.445 27.5 104.125 C25.7578125 104.94140625 25.7578125 104.94140625 23.625 105.6875 C22.92632812 105.93628906 22.22765625 106.18507813 21.5078125 106.44140625 C17.5310828 107.79535119 13.8567722 108.55666471 9.6875 109.125 C4.55193722 109.82276759 4.55193722 109.82276759 -0.5390625 110.77734375 C-4.0717523 111.19213187 -6.63414842 110.59821913 -10.0625 109.6875 C-14.03208023 108.64484229 -17.40457034 108.04637919 -21.5 108.125 C-25.22413793 106.67672414 -25.22413793 106.67672414 -26.5 104.125 C-27.7684375 103.939375 -27.7684375 103.939375 -29.0625 103.75 C-34.13264588 102.82815529 -38.91305742 101.0520017 -42.25 97 C-42.6625 96.38125 -43.075 95.7625 -43.5 95.125 C-45.58334635 93.8733533 -45.58334635 93.8733533 -47.5 93.125 C-47.5 92.465 -47.5 91.805 -47.5 91.125 C-48.985 90.63 -48.985 90.63 -50.5 90.125 C-51.88671875 88.56640625 -51.88671875 88.56640625 -53.1875 86.6875 C-53.62449219 86.07003906 -54.06148437 85.45257813 -54.51171875 84.81640625 C-55.5 83.125 -55.5 83.125 -55.5 81.125 C-56.16 80.795 -56.82 80.465 -57.5 80.125 C-58.125 77.5625 -58.125 77.5625 -58.5 75.125 C-59.16 75.125 -59.82 75.125 -60.5 75.125 C-60.6546875 73.8875 -60.6546875 73.8875 -60.8125 72.625 C-61.36403913 69.06369286 -61.36403913 69.06369286 -63.0625 65.8125 C-64.7798022 61.44733775 -64.83473599 57.19385577 -64.875 52.5625 C-64.88861572 51.84215576 -64.90223145 51.12181152 -64.91625977 50.37963867 C-64.87333514 45.24103232 -63.74499693 41.74003166 -61.5 37.125 C-61.149375 36.073125 -60.79875 35.02125 -60.4375 33.9375 C-58.87272878 29.24318634 -56.62126899 25.77108565 -53.5625 21.875 C-52.87285156 20.98296875 -52.18320313 20.0909375 -51.47265625 19.171875 C-50.49619141 18.15867188 -50.49619141 18.15867188 -49.5 17.125 C-48.51 17.125 -47.52 17.125 -46.5 17.125 C-46.17 16.135 -45.84 15.145 -45.5 14.125 C-44.51 14.125 -43.52 14.125 -42.5 14.125 C-42.5 13.465 -42.5 12.805 -42.5 12.125 C-41.84 12.125 -41.18 12.125 -40.5 12.125 C-40.5 11.465 -40.5 10.805 -40.5 10.125 C-39.18 10.125 -37.86 10.125 -36.5 10.125 C-36.5 9.465 -36.5 8.805 -36.5 8.125 C-35.51 8.125 -34.52 8.125 -33.5 8.125 C-33.17 7.465 -32.84 6.805 -32.5 6.125 C-30.5390625 5.30859375 -30.5390625 5.30859375 -28.125 4.5625 C-27.33351563 4.31371094 -26.54203125 4.06492188 -25.7265625 3.80859375 C-24.62441406 3.47021484 -24.62441406 3.47021484 -23.5 3.125 C-22.51 2.795 -21.52 2.465 -20.5 2.125 C-18.3125 2.5625 -18.3125 2.5625 -16.5 3.125 C-16.5 2.465 -16.5 1.805 -16.5 1.125 C-10.95963072 0.18671165 -5.61362391 -0.02660485 0 0 Z " fill="#AC94FA" transform="translate(285.5,191.875)"/>
<path d="M0 0 C0.87537415 0.00359528 1.75074829 0.00719055 2.65264893 0.01089478 C4.02812141 0.01067574 4.02812141 0.01067574 5.43138123 0.01045227 C8.47773564 0.01115177 11.52402973 0.01894589 14.57037354 0.02676392 C16.67644721 0.02862796 18.78252132 0.03005193 20.88859558 0.03105164 C26.44364612 0.03487786 31.99867069 0.04470903 37.55371094 0.05575562 C43.21746469 0.0659675 48.88122262 0.07054878 54.54498291 0.07559204 C65.66673914 0.0863312 76.78847606 0.10340887 87.91021729 0.12442017 C86.70585684 3.83625081 85.5208965 7.1687362 83.47271729 10.49942017 C83.06150635 11.18777954 82.65029541 11.87613892 82.22662354 12.58535767 C81.79220947 13.09324829 81.35779541 13.60113892 80.91021729 14.12442017 C79.92021729 14.12442017 78.93021729 14.12442017 77.91021729 14.12442017 C77.91021729 15.44442017 77.91021729 16.76442017 77.91021729 18.12442017 C77.25021729 18.12442017 76.59021729 18.12442017 75.91021729 18.12442017 C75.82771729 18.66067017 75.74521729 19.19692017 75.66021729 19.74942017 C74.63865155 22.98437832 72.85220525 25.35015164 70.91021729 28.12442017 C69.85834229 29.79504517 69.85834229 29.79504517 68.78521729 31.49942017 C68.16646729 32.36567017 67.54771729 33.23192017 66.91021729 34.12442017 C66.25021729 34.12442017 65.59021729 34.12442017 64.91021729 34.12442017 C64.91021729 35.44442017 64.91021729 36.76442017 64.91021729 38.12442017 C64.25021729 38.12442017 63.59021729 38.12442017 62.91021729 38.12442017 C62.91021729 39.11442017 62.91021729 40.10442017 62.91021729 41.12442017 C62.25021729 41.12442017 61.59021729 41.12442017 60.91021729 41.12442017 C60.91021729 42.44442017 60.91021729 43.76442017 60.91021729 45.12442017 C59.92021729 46.11442017 59.92021729 46.11442017 58.91021729 47.12442017 C57.3184675 49.20061554 55.93291743 51.07775876 54.78521729 53.43692017 C52.91021729 55.12442017 52.91021729 55.12442017 50.92974854 55.22207642 C46.32317033 54.78225237 42.29074857 53.58459726 37.91021729 52.12442017 C18.84376226 48.10626175 18.84376226 48.10626175 -0.08978271 50.12442017 C-3.07226549 50.88958897 -6.06966159 51.52679902 -9.08978271 52.12442017 C-9.99728271 52.31004517 -10.90478271 52.49567017 -11.83978271 52.68692017 C-15.13119011 51.86406832 -16.21945616 49.91783529 -18.02728271 47.14395142 C-19.56198504 44.22688853 -20.26213853 41.30766702 -21.08978271 38.12442017 C-21.74978271 37.79442017 -22.40978271 37.46442017 -23.08978271 37.12442017 C-23.08978271 36.13442017 -23.08978271 35.14442017 -23.08978271 34.12442017 C-23.74978271 34.12442017 -24.40978271 34.12442017 -25.08978271 34.12442017 C-25.08978271 33.46442017 -25.08978271 32.80442017 -25.08978271 32.12442017 C-25.74978271 32.12442017 -26.40978271 32.12442017 -27.08978271 32.12442017 C-27.41978271 31.13442017 -27.74978271 30.14442017 -28.08978271 29.12442017 C-28.74978271 28.79442017 -29.40978271 28.46442017 -30.08978271 28.12442017 C-30.08978271 27.13442017 -30.08978271 26.14442017 -30.08978271 25.12442017 C-30.64665771 24.89754517 -31.20353271 24.67067017 -31.77728271 24.43692017 C-34.85995137 22.68729742 -36.87907477 20.90359587 -39.08978271 18.12442017 C-39.15228271 14.93692017 -39.15228271 14.93692017 -38.08978271 12.12442017 C-35.93117404 10.59250433 -34.72686143 10.12442017 -32.08978271 10.12442017 C-31.63345459 9.66035767 -31.17712646 9.19629517 -30.70697021 8.71817017 C-25.75579073 3.8387469 -16.21547703 3.17231269 -9.71478271 1.77285767 C-2.55586473 0.00443447 -2.55586473 0.00443447 0 0 Z " fill="#AC94FA" transform="translate(399.08978271484375,157.87557983398438)"/>
<path d="M0 0 C16.17 0 32.34 0 49 0 C49 0.33 49 0.66 49 1 C32.83 1 16.66 1 0 1 C0 0.67 0 0.34 0 0 Z " fill="#8A8AFF" transform="translate(224,455)"/>
<path d="M0 0 C15.18 0 30.36 0 46 0 C46 0.33 46 0.66 46 1 C30.82 1 15.64 1 0 1 C0 0.67 0 0.34 0 0 Z " fill="#E8E8FF" transform="translate(95,455)"/>
<path d="M0 0 C4.29 0 8.58 0 13 0 C13 0.33 13 0.66 13 1 C8.71 1 4.42 1 0 1 C0 0.67 0 0.34 0 0 Z " fill="#ACACFF" transform="translate(256,29)"/>
<path d="M0 0 C2.97 0 5.94 0 9 0 C9 0.33 9 0.66 9 1 C6.03 1 3.06 1 0 1 C0 0.67 0 0.34 0 0 Z " fill="#BABAFF" transform="translate(400,157)"/>
<path d="M0 0 C0.33 0 0.66 0 1 0 C1 2.31 1 4.62 1 7 C0.67 7 0.34 7 0 7 C0 4.69 0 2.38 0 0 Z " fill="#FFFFFF" transform="translate(458,387)"/>
<path d="M0 0 C0.33 0 0.66 0 1 0 C1 2.31 1 4.62 1 7 C0.67 7 0.34 7 0 7 C0 4.69 0 2.38 0 0 Z " fill="#8C8CFF" transform="translate(220,242)"/>
<path d="" fill="#B8B8FF" transform="translate(0,0)"/>
<path d="M0 0 C3 1 3 1 3 1 Z " fill="#B2B2FF" transform="translate(307,331)"/>
<path d="" fill="#FFFFFF" transform="translate(0,0)"/>
<path d="M0 0 C3 1 3 1 3 1 Z " fill="#D4D4FF" transform="translate(302,149)"/>
<path d="M0 0 C3 1 3 1 3 1 Z " fill="#B8B8FF" transform="translate(263,149)"/>
<path d="M0 0 C2 1 2 1 2 1 Z " fill="#BFBFFF" transform="translate(346,455)"/>
<path d="" fill="#FFFFFF" transform="translate(0,0)"/>
<path d="" fill="#AAAAFF" transform="translate(0,0)"/>
<path d="" fill="#9B9BFF" transform="translate(0,0)"/>
<path d="" fill="#FFFFFF" transform="translate(0,0)"/>
<path d="" fill="#C0C0FF" transform="translate(0,0)"/>
<path d="" fill="#C0C0FF" transform="translate(0,0)"/>
<path d="" fill="#8080FF" transform="translate(0,0)"/>
<path d="" fill="#BCBCFF" transform="translate(0,0)"/>
<path d="" fill="#C2C2FF" transform="translate(0,0)"/>
<path d="" fill="#A2A2FF" transform="translate(0,0)"/>
<path d="" fill="#8A8AFF" transform="translate(0,0)"/>
<path d="M0 0 C2 1 2 1 2 1 Z " fill="#FFFFFF" transform="translate(386,318)"/>
<path d="" fill="#FFFFFF" transform="translate(0,0)"/>
<path d="" fill="#BFBFFF" transform="translate(0,0)"/>
<path d="" fill="#FFFFFF" transform="translate(0,0)"/>
<path d="" fill="#FFFFFF" transform="translate(0,0)"/>
<path d="" fill="#FFFFFF" transform="translate(0,0)"/>
<path d="" fill="#FFFFFF" transform="translate(0,0)"/>
<path d="" fill="#FFFFFF" transform="translate(0,0)"/>
<path d="" fill="#FFFFFF" transform="translate(0,0)"/>
<path d="" fill="#FFFFFF" transform="translate(0,0)"/>
<path d="" fill="#FFFFFF" transform="translate(0,0)"/>
<path d="M0 0 C2 1 2 1 2 1 Z " fill="#FFFFFF" transform="translate(446,213)"/>
<path d="" fill="#FFFFFF" transform="translate(0,0)"/>
<path d="" fill="#FFFFFF" transform="translate(0,0)"/>
<path d="" fill="#FFFFFF" transform="translate(0,0)"/>
<path d="M0 0 C2 1 2 1 2 1 Z " fill="#BDBDFF" transform="translate(183,157)"/>
<path d="M0 0 C2 1 2 1 2 1 Z " fill="#A9A9FF" transform="translate(49,157)"/>
<path d="M0 0 C2 1 2 1 2 1 Z " fill="#C1C1FF" transform="translate(19,157)"/>
<path d="" fill="#FFFFFF" transform="translate(0,0)"/>
<path d="" fill="#8585FF" transform="translate(0,0)"/>
<path d="" fill="#FFFFFF" transform="translate(0,0)"/>
<path d="" fill="#FFFFFF" transform="translate(0,0)"/>
<path d="" fill="#FFFFFF" transform="translate(0,0)"/>
<path d="" fill="#FFFFFF" transform="translate(0,0)"/>
<path d="" fill="#FFFFFF" transform="translate(0,0)"/>
<path d="" fill="#FFFFFF" transform="translate(0,0)"/>
<path d="" fill="#FFFFFF" transform="translate(0,0)"/>
<path d="" fill="#B2B2FF" transform="translate(0,0)"/>
<path d="" fill="#9D9DFF" transform="translate(0,0)"/>
<path d="" fill="#FFFFFF" transform="translate(0,0)"/>
<path d="" fill="#7F7FFF" transform="translate(0,0)"/>
<path d="" fill="#9F9FFF" transform="translate(0,0)"/>
<path d="" fill="#7F7FFF" transform="translate(0,0)"/>
<path d="" fill="#FFFFFF" transform="translate(0,0)"/>
<path d="" fill="#FFFFFF" transform="translate(0,0)"/>
<path d="" fill="#FFFFFF" transform="translate(0,0)"/>
<path d="" fill="#FFFFFF" transform="translate(0,0)"/>
<path d="" fill="#FFFFFF" transform="translate(0,0)"/>
<path d="" fill="#FFFFFF" transform="translate(0,0)"/>
<path d="" fill="#FFFFFF" transform="translate(0,0)"/>
<path d="" fill="#8B8BFF" transform="translate(0,0)"/>
<path d="" fill="#B4B4FF" transform="translate(0,0)"/>
<path d="" fill="#FFFFFF" transform="translate(0,0)"/>
<path d="" fill="#8080FF" transform="translate(0,0)"/>
<path d="" fill="#FFFFFF" transform="translate(0,0)"/>
<path d="" fill="#FFFFFF" transform="translate(0,0)"/>
<path d="" fill="#FFFFFF" transform="translate(0,0)"/>
<path d="" fill="#FFFFFF" transform="translate(0,0)"/>
<path d="" fill="#8080FF" transform="translate(0,0)"/>
<path d="" fill="#FFFFFF" transform="translate(0,0)"/>
<path d="" fill="#8080FF" transform="translate(0,0)"/>
<path d="" fill="#A6A6FF" transform="translate(0,0)"/>
<path d="" fill="#FFFFFF" transform="translate(0,0)"/>
<path d="" fill="#FFFFFF" transform="translate(0,0)"/>
<path d="" fill="#FFFFFF" transform="translate(0,0)"/>
<path d="" fill="#8787FF" transform="translate(0,0)"/>
<path d="" fill="#FFFFFF" transform="translate(0,0)"/>
<path d="" fill="#FFFFFF" transform="translate(0,0)"/>
<path d="" fill="#8080FF" transform="translate(0,0)"/>
<path d="" fill="#FFFFFF" transform="translate(0,0)"/>
<path d="" fill="#FFFFFF" transform="translate(0,0)"/>
<path d="" fill="#FFFFFF" transform="translate(0,0)"/>
<path d="" fill="#BCBCFF" transform="translate(0,0)"/>
<path d="" fill="#FFFFFF" transform="translate(0,0)"/>
<path d="" fill="#FFFFFF" transform="translate(0,0)"/>
<path d="" fill="#FFFFFF" transform="translate(0,0)"/>
<path d="" fill="#8989FF" transform="translate(0,0)"/>
<path d="" fill="#FFFFFF" transform="translate(0,0)"/>
<path d="" fill="#FFFFFF" transform="translate(0,0)"/>
<path d="" fill="#FFFFFF" transform="translate(0,0)"/>
<path d="" fill="#FFFFFF" transform="translate(0,0)"/>
<path d="" fill="#FFFFFF" transform="translate(0,0)"/>
<path d="" fill="#FFFFFF" transform="translate(0,0)"/>
<path d="" fill="#FFFFFF" transform="translate(0,0)"/>
<path d="" fill="#FFFFFF" transform="translate(0,0)"/>
<path d="" fill="#FFFFFF" transform="translate(0,0)"/>
<path d="" fill="#8A8AFF" transform="translate(0,0)"/>
<path d="" fill="#FFFFFF" transform="translate(0,0)"/>
<path d="" fill="#FFFFFF" transform="translate(0,0)"/>
<path d="" fill="#FFFFFF" transform="translate(0,0)"/>
<path d="" fill="#FFFFFF" transform="translate(0,0)"/>
<path d="" fill="#FFFFFF" transform="translate(0,0)"/>
<path d="" fill="#FFFFFF" transform="translate(0,0)"/>
<path d="" fill="#C0C0FF" transform="translate(0,0)"/>
<path d="" fill="#FFFFFF" transform="translate(0,0)"/>
<path d="" fill="#FFFFFF" transform="translate(0,0)"/>
<path d="" fill="#FFFFFF" transform="translate(0,0)"/>
<path d="" fill="#FFFFFF" transform="translate(0,0)"/>
<path d="" fill="#FFFFFF" transform="translate(0,0)"/>
<path d="" fill="#FFFFFF" transform="translate(0,0)"/>
<path d="" fill="#FFFFFF" transform="translate(0,0)"/>
<path d="" fill="#FFFFFF" transform="translate(0,0)"/>
<path d="" fill="#FFFFFF" transform="translate(0,0)"/>
<path d="" fill="#FFFFFF" transform="translate(0,0)"/>
<path d="" fill="#FFFFFF" transform="translate(0,0)"/>
<path d="" fill="#FFFFFF" transform="translate(0,0)"/>
</svg>
